<svg xmlns="http://www.w3.org/2000/svg" width="800" height="1000" viewBox="0 0 800 1000">
  <rect width="800" height="1000" fill="#E5E2DC"/>
  <!-- Dense vertical thin lines at 4px intervals -->
  <g stroke="#3D352B" stroke-width="0.5" opacity="0.35">
    <line x1="80" y1="100" x2="80" y2="880"/><line x1="84" y1="100" x2="84" y2="880"/>
    <line x1="88" y1="100" x2="88" y2="880"/><line x1="92" y1="100" x2="92" y2="880"/>
    <line x1="96" y1="100" x2="96" y2="880"/><line x1="100" y1="100" x2="100" y2="880"/>
    <line x1="104" y1="100" x2="104" y2="880"/><line x1="108" y1="100" x2="108" y2="880"/>
    <line x1="112" y1="100" x2="112" y2="880"/><line x1="116" y1="100" x2="116" y2="880"/>
    <line x1="120" y1="100" x2="120" y2="880"/><line x1="124" y1="100" x2="124" y2="880"/>
    <line x1="128" y1="100" x2="128" y2="880"/><line x1="132" y1="100" x2="132" y2="880"/>
    <line x1="136" y1="100" x2="136" y2="880"/><line x1="140" y1="100" x2="140" y2="880"/>
    <line x1="144" y1="100" x2="144" y2="880"/><line x1="148" y1="100" x2="148" y2="880"/>
    <line x1="152" y1="100" x2="152" y2="880"/><line x1="156" y1="100" x2="156" y2="880"/>
    <line x1="160" y1="100" x2="160" y2="880"/><line x1="164" y1="100" x2="164" y2="880"/>
    <line x1="168" y1="100" x2="168" y2="880"/><line x1="172" y1="100" x2="172" y2="880"/>
    <line x1="176" y1="100" x2="176" y2="880"/><line x1="180" y1="100" x2="180" y2="880"/>
    <line x1="184" y1="100" x2="184" y2="880"/><line x1="188" y1="100" x2="188" y2="880"/>
    <line x1="192" y1="100" x2="192" y2="880"/><line x1="196" y1="100" x2="196" y2="880"/>
    <line x1="200" y1="100" x2="200" y2="880"/><line x1="204" y1="100" x2="204" y2="880"/>
    <line x1="208" y1="100" x2="208" y2="880"/><line x1="212" y1="100" x2="212" y2="880"/>
    <line x1="216" y1="100" x2="216" y2="880"/><line x1="220" y1="100" x2="220" y2="880"/>
    <line x1="224" y1="100" x2="224" y2="880"/><line x1="228" y1="100" x2="228" y2="880"/>
    <line x1="232" y1="100" x2="232" y2="880"/><line x1="236" y1="100" x2="236" y2="880"/>
    <line x1="240" y1="100" x2="240" y2="880"/><line x1="244" y1="100" x2="244" y2="880"/>
    <line x1="248" y1="100" x2="248" y2="880"/><line x1="252" y1="100" x2="252" y2="880"/>
    <line x1="256" y1="100" x2="256" y2="880"/><line x1="260" y1="100" x2="260" y2="880"/>
    <line x1="264" y1="100" x2="264" y2="880"/><line x1="268" y1="100" x2="268" y2="880"/>
    <line x1="272" y1="100" x2="272" y2="880"/><line x1="276" y1="100" x2="276" y2="880"/>
    <line x1="280" y1="100" x2="280" y2="880"/><line x1="284" y1="100" x2="284" y2="880"/>
    <line x1="288" y1="100" x2="288" y2="880"/><line x1="292" y1="100" x2="292" y2="880"/>
    <line x1="296" y1="100" x2="296" y2="880"/><line x1="300" y1="100" x2="300" y2="880"/>
    <line x1="304" y1="100" x2="304" y2="880"/><line x1="308" y1="100" x2="308" y2="880"/>
    <line x1="312" y1="100" x2="312" y2="880"/><line x1="316" y1="100" x2="316" y2="880"/>
    <line x1="320" y1="100" x2="320" y2="880"/><line x1="324" y1="100" x2="324" y2="880"/>
    <line x1="328" y1="100" x2="328" y2="880"/><line x1="332" y1="100" x2="332" y2="880"/>
    <line x1="336" y1="100" x2="336" y2="880"/><line x1="340" y1="100" x2="340" y2="880"/>
    <line x1="344" y1="100" x2="344" y2="880"/><line x1="348" y1="100" x2="348" y2="880"/>
    <line x1="352" y1="100" x2="352" y2="880"/><line x1="356" y1="100" x2="356" y2="880"/>
    <line x1="360" y1="100" x2="360" y2="880"/><line x1="364" y1="100" x2="364" y2="880"/>
    <line x1="368" y1="100" x2="368" y2="880"/><line x1="372" y1="100" x2="372" y2="880"/>
    <line x1="376" y1="100" x2="376" y2="880"/><line x1="380" y1="100" x2="380" y2="880"/>
    <line x1="384" y1="100" x2="384" y2="880"/><line x1="388" y1="100" x2="388" y2="880"/>
    <line x1="392" y1="100" x2="392" y2="880"/><line x1="396" y1="100" x2="396" y2="880"/>
    <line x1="400" y1="100" x2="400" y2="880"/><line x1="404" y1="100" x2="404" y2="880"/>
    <line x1="408" y1="100" x2="408" y2="880"/><line x1="412" y1="100" x2="412" y2="880"/>
    <line x1="416" y1="100" x2="416" y2="880"/><line x1="420" y1="100" x2="420" y2="880"/>
    <line x1="424" y1="100" x2="424" y2="880"/><line x1="428" y1="100" x2="428" y2="880"/>
    <line x1="432" y1="100" x2="432" y2="880"/><line x1="436" y1="100" x2="436" y2="880"/>
    <line x1="440" y1="100" x2="440" y2="880"/><line x1="444" y1="100" x2="444" y2="880"/>
    <line x1="448" y1="100" x2="448" y2="880"/><line x1="452" y1="100" x2="452" y2="880"/>
    <line x1="456" y1="100" x2="456" y2="880"/><line x1="460" y1="100" x2="460" y2="880"/>
    <line x1="464" y1="100" x2="464" y2="880"/><line x1="468" y1="100" x2="468" y2="880"/>
    <line x1="472" y1="100" x2="472" y2="880"/><line x1="476" y1="100" x2="476" y2="880"/>
    <line x1="480" y1="100" x2="480" y2="880"/><line x1="484" y1="100" x2="484" y2="880"/>
    <line x1="488" y1="100" x2="488" y2="880"/><line x1="492" y1="100" x2="492" y2="880"/>
    <line x1="496" y1="100" x2="496" y2="880"/><line x1="500" y1="100" x2="500" y2="880"/>
    <line x1="504" y1="100" x2="504" y2="880"/><line x1="508" y1="100" x2="508" y2="880"/>
    <line x1="512" y1="100" x2="512" y2="880"/><line x1="516" y1="100" x2="516" y2="880"/>
    <line x1="520" y1="100" x2="520" y2="880"/><line x1="524" y1="100" x2="524" y2="880"/>
    <line x1="528" y1="100" x2="528" y2="880"/><line x1="532" y1="100" x2="532" y2="880"/>
    <line x1="536" y1="100" x2="536" y2="880"/><line x1="540" y1="100" x2="540" y2="880"/>
    <line x1="544" y1="100" x2="544" y2="880"/><line x1="548" y1="100" x2="548" y2="880"/>
    <line x1="552" y1="100" x2="552" y2="880"/><line x1="556" y1="100" x2="556" y2="880"/>
    <line x1="560" y1="100" x2="560" y2="880"/><line x1="564" y1="100" x2="564" y2="880"/>
    <line x1="568" y1="100" x2="568" y2="880"/><line x1="572" y1="100" x2="572" y2="880"/>
    <line x1="576" y1="100" x2="576" y2="880"/><line x1="580" y1="100" x2="580" y2="880"/>
    <line x1="584" y1="100" x2="584" y2="880"/><line x1="588" y1="100" x2="588" y2="880"/>
    <line x1="592" y1="100" x2="592" y2="880"/><line x1="596" y1="100" x2="596" y2="880"/>
    <line x1="600" y1="100" x2="600" y2="880"/><line x1="604" y1="100" x2="604" y2="880"/>
    <line x1="608" y1="100" x2="608" y2="880"/><line x1="612" y1="100" x2="612" y2="880"/>
    <line x1="616" y1="100" x2="616" y2="880"/><line x1="620" y1="100" x2="620" y2="880"/>
    <line x1="624" y1="100" x2="624" y2="880"/><line x1="628" y1="100" x2="628" y2="880"/>
    <line x1="632" y1="100" x2="632" y2="880"/><line x1="636" y1="100" x2="636" y2="880"/>
    <line x1="640" y1="100" x2="640" y2="880"/><line x1="644" y1="100" x2="644" y2="880"/>
    <line x1="648" y1="100" x2="648" y2="880"/><line x1="652" y1="100" x2="652" y2="880"/>
    <line x1="656" y1="100" x2="656" y2="880"/><line x1="660" y1="100" x2="660" y2="880"/>
    <line x1="664" y1="100" x2="664" y2="880"/><line x1="668" y1="100" x2="668" y2="880"/>
    <line x1="672" y1="100" x2="672" y2="880"/><line x1="676" y1="100" x2="676" y2="880"/>
    <line x1="680" y1="100" x2="680" y2="880"/><line x1="684" y1="100" x2="684" y2="880"/>
    <line x1="688" y1="100" x2="688" y2="880"/><line x1="692" y1="100" x2="692" y2="880"/>
    <line x1="696" y1="100" x2="696" y2="880"/><line x1="700" y1="100" x2="700" y2="880"/>
    <line x1="704" y1="100" x2="704" y2="880"/><line x1="708" y1="100" x2="708" y2="880"/>
    <line x1="712" y1="100" x2="712" y2="880"/><line x1="716" y1="100" x2="716" y2="880"/>
    <line x1="720" y1="100" x2="720" y2="880"/>
  </g>
  <!-- Baseline -->
  <line x1="60" y1="880" x2="740" y2="880" stroke="#3D352B" stroke-width="0.75" opacity="0.3"/>
  <!-- Label -->
  <text x="80" y="950" fill="#6B655C" font-family="serif" font-size="28" font-weight="300" font-style="italic">Metal</text>
</svg>
